<svg xmlns="http://www.w3.org/2000/svg" width="360" height="244" fill="none"><g clip-path="url(#a)"><rect width="357.348" height="241.348" x="1.326" y="1.326" fill="#08003A" stroke="#1600A9" stroke-width="2.652" rx="4.674"/><path fill="#D8DEE5" d="M28 18a4 4 0 1 1-8 0 4 4 0 0 1 8 0ZM42 18a4 4 0 1 1-8 0 4 4 0 0 1 8 0Z"/><path fill="#D8DEE5" fill-rule="evenodd" d="M52 20.4a2.4 2.4 0 1 0 0-4.8 2.4 2.4 0 0 0 0 4.8Zm0 1.6a4 4 0 1 0 0-8 4 4 0 0 0 0 8Z" clip-rule="evenodd"/><path fill="#1600A9" fill-rule="evenodd" d="M361.53 155.415H2V151h359.53v4.415Z" clip-rule="evenodd"/><rect width="426.774" height="213.387" x="36" y="180.108" fill="#B8C3D2" opacity=".2" rx="6.774"/><g clip-path="url(#b)"><path fill="#D8DEE5" fill-rule="evenodd" d="M571.373 72.355H42.94c-.976 0-1.767.65-1.767 1.451V113c0 .802.791 1.452 1.767 1.452h528.433c.976 0 1.767-.65 1.767-1.452V73.806c0-.801-.791-1.451-1.767-1.451ZM42.94 68c-3.904 0-7.07 2.6-7.07 5.806V113c0 3.207 3.166 5.806 7.07 5.806h528.433c3.904 0 7.069-2.599 7.069-5.806V73.806c0-3.206-3.165-5.806-7.069-5.806H42.94Z" clip-rule="evenodd"/><path fill="#FF206E" d="M59.46 106.458c-1.027 0-2.086-.199-3.176-.598-1.069-.398-2.001-.922-2.798-1.572l2.075-2.892c.713.524 1.394.933 2.044 1.226.67.273 1.331.409 1.98.409.693 0 1.196-.116 1.51-.346.314-.252.472-.576.472-.975 0-.356-.158-.65-.472-.88-.294-.231-.681-.44-1.163-.629-.483-.21-.996-.42-1.541-.629a13.21 13.21 0 0 1-1.886-.943 5.333 5.333 0 0 1-1.541-1.446c-.42-.608-.629-1.342-.629-2.201 0-1.446.545-2.62 1.635-3.522 1.111-.9 2.557-1.351 4.339-1.351 1.195 0 2.243.21 3.144.628.922.399 1.708.85 2.358 1.352l-2.075 2.767a7.477 7.477 0 0 0-1.635-.975 4.169 4.169 0 0 0-1.635-.345c-1.195 0-1.792.408-1.792 1.226 0 .503.293.89.88 1.163.608.252 1.31.524 2.107.818.67.23 1.32.534 1.95.911a4.62 4.62 0 0 1 1.603 1.447c.44.587.66 1.362.66 2.326 0 1.405-.545 2.599-1.635 3.585-1.09.964-2.683 1.446-4.779 1.446Zm13.94 0c-1.027 0-2.086-.199-3.176-.598-1.069-.398-2.002-.922-2.798-1.572l2.075-2.892c.713.524 1.394.933 2.044 1.226.67.273 1.33.409 1.98.409.692 0 1.195-.116 1.51-.346.314-.252.471-.576.471-.975 0-.356-.157-.65-.471-.88-.294-.231-.682-.44-1.164-.629-.482-.21-.995-.42-1.54-.629a13.21 13.21 0 0 1-1.887-.943 5.333 5.333 0 0 1-1.54-1.446c-.42-.608-.63-1.342-.63-2.201 0-1.446.546-2.62 1.636-3.522 1.11-.9 2.557-1.351 4.339-1.351 1.194 0 2.242.21 3.144.628.922.399 1.708.85 2.358 1.352l-2.075 2.767a7.477 7.477 0 0 0-1.635-.975 4.169 4.169 0 0 0-1.635-.345c-1.195 0-1.792.408-1.792 1.226 0 .503.293.89.88 1.163.608.252 1.31.524 2.107.818.67.23 1.32.534 1.949.911a4.62 4.62 0 0 1 1.603 1.447c.44.587.66 1.362.66 2.326 0 1.405-.544 2.599-1.634 3.585-1.09.964-2.683 1.446-4.78 1.446Z"/><path fill="#D7DDE5" d="M84.478 112.18c-.46 0-.87-.031-1.226-.094-.335-.063-.66-.136-.975-.22l.818-3.522c.147.021.314.053.503.095.189.063.367.094.534.094.776 0 1.373-.189 1.793-.566.419-.377.733-.87.943-1.478l.22-.817-6.005-15.186h4.653l2.232 6.697c.23.712.44 1.435.629 2.17.189.733.388 1.487.597 2.263h.126l.503-2.2c.189-.755.378-1.5.566-2.233l1.887-6.697h4.433L91.3 106.238c-.482 1.299-1.017 2.389-1.603 3.27-.587.901-1.3 1.572-2.138 2.012-.818.44-1.845.66-3.082.66Zm21.118-5.722a7.817 7.817 0 0 1-3.741-.943c-1.153-.65-2.086-1.583-2.798-2.799-.713-1.236-1.07-2.714-1.07-4.433 0-1.74.357-3.217 1.07-4.433.712-1.216 1.645-2.138 2.798-2.767a7.609 7.609 0 0 1 3.741-.974 7.43 7.43 0 0 1 3.71.974c1.153.629 2.086 1.551 2.799 2.767.712 1.216 1.069 2.693 1.069 4.433 0 1.719-.357 3.197-1.069 4.433-.713 1.216-1.646 2.149-2.799 2.799a7.633 7.633 0 0 1-3.71.943Zm0-3.742c.944 0 1.656-.398 2.138-1.194.482-.818.723-1.897.723-3.239 0-1.362-.241-2.442-.723-3.238-.482-.797-1.194-1.195-2.138-1.195-.964 0-1.687.398-2.169 1.195-.461.796-.692 1.876-.692 3.238 0 1.342.231 2.421.692 3.239.482.796 1.205 1.194 2.169 1.194Zm15.428 3.742c-1.698 0-2.934-.556-3.71-1.667-.755-1.131-1.132-2.672-1.132-4.621v-9.684h4.622v9.086c0 1.111.157 1.887.472 2.327.314.419.807.629 1.477.629.587 0 1.08-.137 1.478-.409.398-.273.828-.713 1.289-1.321V90.486h4.622v15.595h-3.773l-.346-2.17h-.094c-.65.776-1.363 1.394-2.138 1.855-.776.461-1.698.692-2.767.692Zm19.19 0c-1.928 0-3.311-.556-4.15-1.667-.817-1.11-1.226-2.567-1.226-4.37v-6.32H132.7v-3.427l2.39-.188.534-4.15h3.836v4.15h3.741V94.1h-3.741v6.257c0 .881.178 1.52.534 1.918.378.377.87.566 1.478.566.252 0 .503-.031.755-.094.272-.063.513-.136.723-.22l.723 3.364c-.398.126-.891.251-1.478.377-.566.126-1.226.189-1.981.189Zm10.716 0c-1.698 0-2.935-.556-3.71-1.667-.755-1.131-1.132-2.672-1.132-4.621v-9.684h4.622v9.086c0 1.111.157 1.887.472 2.327.314.419.807.629 1.477.629.587 0 1.08-.137 1.478-.409.398-.273.828-.713 1.289-1.321V90.486h4.622v15.595h-3.773l-.346-2.17h-.094c-.65.776-1.363 1.394-2.138 1.855-.776.461-1.698.692-2.767.692Zm21.36 0c-.692 0-1.394-.168-2.107-.503-.691-.357-1.341-.87-1.949-1.541h-.126l-.377 1.667h-3.616v-22.04h4.622v5.407l-.126 2.39a6.882 6.882 0 0 1 1.981-1.258 5.26 5.26 0 0 1 2.138-.471c1.258 0 2.348.324 3.27.974.922.65 1.624 1.572 2.106 2.767.503 1.174.755 2.557.755 4.15 0 1.782-.314 3.312-.943 4.591-.629 1.257-1.447 2.221-2.453 2.892-.985.65-2.043.975-3.175.975Zm-1.069-3.773c.796 0 1.478-.367 2.043-1.101.566-.733.849-1.897.849-3.49 0-2.808-.901-4.213-2.704-4.213-.922 0-1.813.472-2.672 1.415v6.383c.419.377.838.639 1.258.786.419.147.828.22 1.226.22Zm17.897 3.773c-1.488 0-2.829-.325-4.024-.975-1.195-.65-2.138-1.582-2.83-2.798-.691-1.216-1.037-2.683-1.037-4.402 0-1.698.346-3.154 1.037-4.37.713-1.216 1.635-2.149 2.767-2.798 1.132-.671 2.316-1.006 3.553-1.006 1.488 0 2.714.335 3.678 1.006.986.65 1.719 1.54 2.201 2.672.503 1.111.755 2.38.755 3.804 0 .399-.021.797-.063 1.195-.042.377-.084.66-.126.85h-9.338c.21 1.131.682 1.969 1.415 2.514.734.524 1.614.786 2.641.786 1.111 0 2.233-.345 3.364-1.037l1.541 2.798c-.796.545-1.687.975-2.672 1.289-.986.315-1.939.472-2.862.472Zm-3.458-9.873h5.628c0-.859-.21-1.561-.629-2.106-.398-.566-1.059-.85-1.981-.85-.712 0-1.352.252-1.918.755-.566.483-.932 1.216-1.1 2.201Zm15.424 9.873c-.796 0-1.467-.273-2.012-.818-.524-.566-.786-1.257-.786-2.075 0-.838.262-1.53.786-2.075.545-.566 1.216-.849 2.012-.849.797 0 1.457.283 1.981.849.545.545.817 1.237.817 2.075 0 .818-.272 1.509-.817 2.075-.524.545-1.184.818-1.981.818Zm13.238 0c-1.446 0-2.756-.315-3.93-.943-1.153-.65-2.075-1.583-2.767-2.799-.671-1.236-1.006-2.714-1.006-4.433 0-1.74.377-3.217 1.132-4.433.755-1.216 1.75-2.138 2.987-2.767a8.459 8.459 0 0 1 3.993-.974c.964 0 1.813.157 2.547.471a7.995 7.995 0 0 1 2.012 1.195l-2.17 2.987c-.733-.608-1.435-.912-2.106-.912-1.111 0-2.002.398-2.673 1.195-.649.796-.974 1.876-.974 3.238 0 1.342.325 2.421.974 3.239.671.796 1.509 1.194 2.516 1.194.503 0 .995-.104 1.477-.314a6.98 6.98 0 0 0 1.321-.818l1.823 3.019a7.254 7.254 0 0 1-2.515 1.446 9.08 9.08 0 0 1-2.641.409Zm13.692 0a7.818 7.818 0 0 1-3.742-.943c-1.152-.65-2.085-1.583-2.798-2.799-.712-1.236-1.069-2.714-1.069-4.433 0-1.74.357-3.217 1.069-4.433.713-1.216 1.646-2.138 2.798-2.767a7.61 7.61 0 0 1 3.742-.974c1.32 0 2.557.324 3.71.974 1.153.629 2.086 1.551 2.798 2.767.713 1.216 1.069 2.693 1.069 4.433 0 1.719-.356 3.197-1.069 4.433-.712 1.216-1.645 2.149-2.798 2.799a7.639 7.639 0 0 1-3.71.943Zm0-3.742c.943 0 1.656-.398 2.138-1.194.482-.818.723-1.897.723-3.239 0-1.362-.241-2.442-.723-3.238-.482-.797-1.195-1.195-2.138-1.195-.964 0-1.687.398-2.169 1.195-.462.796-.692 1.876-.692 3.238 0 1.342.23 2.421.692 3.239.482.796 1.205 1.194 2.169 1.194Zm10.743 3.365V90.486h3.773l.314 2.012h.126c.65-.65 1.342-1.205 2.075-1.666.734-.482 1.614-.723 2.641-.723 1.111 0 2.002.23 2.673.691.691.44 1.236 1.08 1.635 1.918a12.666 12.666 0 0 1 2.201-1.824c.775-.523 1.676-.785 2.703-.785 1.677 0 2.904.565 3.679 1.697.797 1.111 1.195 2.641 1.195 4.59v9.685h-4.622v-9.087c0-1.132-.157-1.907-.472-2.326-.293-.42-.775-.63-1.446-.63-.775 0-1.666.504-2.672 1.51v10.533h-4.622v-9.087c0-1.132-.157-1.907-.472-2.326-.293-.42-.775-.63-1.446-.63-.776 0-1.656.504-2.641 1.51v10.533h-4.622Zm25.323 5.03 6.32-27.354h3.018l-6.319 27.354h-3.019Zm15.874-5.03-5.251-15.595h4.654l2.012 7.357c.209.775.408 1.572.597 2.39.21.796.419 1.603.629 2.42h.126c.188-.817.377-1.624.566-2.42.209-.818.419-1.615.628-2.39l2.044-7.357h4.433l-5.093 15.595h-5.345Zm12.873 0V90.486h4.622v15.595h-4.622Zm2.295-17.89c-.775 0-1.404-.22-1.886-.66-.482-.44-.723-1.028-.723-1.761 0-.734.241-1.32.723-1.761.482-.44 1.111-.66 1.886-.66.776 0 1.405.22 1.887.66.482.44.723 1.027.723 1.76 0 .734-.241 1.321-.723 1.761-.482.44-1.111.66-1.887.66Zm11.959 18.267c-1.928 0-3.479-.723-4.653-2.17-1.153-1.467-1.729-3.469-1.729-6.005 0-1.698.304-3.154.912-4.37.629-1.237 1.435-2.18 2.421-2.83 1.006-.65 2.054-.974 3.144-.974.859 0 1.582.146 2.169.44a6.805 6.805 0 0 1 1.667 1.194l-.189-2.39V84.04h4.622v22.041h-3.773l-.315-1.541h-.125a7.613 7.613 0 0 1-1.918 1.383 5.056 5.056 0 0 1-2.233.535Zm1.195-3.773c.503 0 .954-.105 1.352-.314.419-.21.818-.577 1.195-1.101v-6.382a3.347 3.347 0 0 0-1.289-.787c-.44-.146-.87-.22-1.289-.22-.734 0-1.384.357-1.95 1.07-.566.691-.849 1.781-.849 3.27 0 1.53.242 2.661.724 3.395.503.713 1.205 1.069 2.106 1.069Zm18.244 3.773c-1.489 0-2.83-.325-4.025-.975-1.195-.65-2.138-1.582-2.83-2.798-.691-1.216-1.037-2.683-1.037-4.402 0-1.698.346-3.154 1.037-4.37.713-1.216 1.635-2.149 2.767-2.798 1.132-.671 2.316-1.006 3.553-1.006 1.488 0 2.715.335 3.679 1.006.985.65 1.719 1.54 2.201 2.672.503 1.111.754 2.38.754 3.804 0 .399-.021.797-.063 1.195-.042.377-.083.66-.125.85h-9.338c.209 1.131.681 1.969 1.414 2.514.734.524 1.614.786 2.641.786 1.111 0 2.233-.345 3.365-1.037l1.54 2.798c-.796.545-1.687.975-2.672 1.289-.985.315-1.939.472-2.861.472Zm-3.459-9.873h5.628c0-.859-.21-1.561-.629-2.106-.398-.566-1.058-.85-1.981-.85-.712 0-1.351.252-1.917.755-.566.483-.933 1.216-1.101 2.201Zm19.449 9.873a7.818 7.818 0 0 1-3.742-.943c-1.152-.65-2.085-1.583-2.798-2.799-.713-1.236-1.069-2.714-1.069-4.433 0-1.74.356-3.217 1.069-4.433.713-1.216 1.646-2.138 2.798-2.767a7.61 7.61 0 0 1 3.742-.974c1.32 0 2.557.324 3.71.974 1.153.629 2.086 1.551 2.798 2.767.713 1.216 1.069 2.693 1.069 4.433 0 1.719-.356 3.197-1.069 4.433-.712 1.216-1.645 2.149-2.798 2.799a7.639 7.639 0 0 1-3.71.943Zm0-3.742c.943 0 1.656-.398 2.138-1.194.482-.818.723-1.897.723-3.239 0-1.362-.241-2.442-.723-3.238-.482-.797-1.195-1.195-2.138-1.195-.964 0-1.687.398-2.17 1.195-.461.796-.691 1.876-.691 3.238 0 1.342.23 2.421.691 3.239.483.796 1.206 1.194 2.17 1.194Zm13.107 3.365-3.899-15.595h4.591l1.509 7.231c.126.776.241 1.54.346 2.295.104.755.22 1.531.345 2.327h.126c.147-.796.283-1.582.409-2.358.147-.776.314-1.53.503-2.264l1.729-7.231h3.993l1.761 7.231c.189.776.356 1.54.503 2.295.168.755.325 1.531.472 2.327h.125a32.78 32.78 0 0 0 .346-2.327c.105-.754.231-1.52.378-2.295l1.477-7.231h4.276l-3.741 15.595h-5.408l-1.415-6.226-.44-2.2c-.126-.734-.262-1.52-.409-2.359h-.126c-.146.839-.283 1.625-.408 2.358a40.162 40.162 0 0 1-.378 2.201l-1.383 6.226h-5.282Zm21.8 0V90.486h4.622v15.595h-4.622Zm2.295-17.89c-.775 0-1.404-.22-1.886-.66-.482-.44-.723-1.028-.723-1.761 0-.734.241-1.32.723-1.761.482-.44 1.111-.66 1.886-.66.776 0 1.405.22 1.887.66.482.44.723 1.027.723 1.76 0 .734-.241 1.321-.723 1.761-.482.44-1.111.66-1.887.66Zm12.4 18.267c-1.929 0-3.312-.556-4.151-1.667-.817-1.11-1.226-2.567-1.226-4.37v-6.32h-2.138v-3.427l2.39-.188.534-4.15h3.836v4.15h3.742V94.1h-3.742v6.257c0 .881.178 1.52.535 1.918.377.377.869.566 1.477.566.252 0 .503-.031.755-.094.272-.063.513-.136.723-.22l.723 3.364c-.398.126-.891.251-1.478.377-.565.126-1.226.189-1.98.189Zm6.03-.377v-22.04h4.622v5.407l-.22 2.799a11.79 11.79 0 0 1 2.044-1.447c.796-.46 1.719-.691 2.767-.691 1.698 0 2.924.565 3.678 1.697.776 1.111 1.164 2.641 1.164 4.59v9.685h-4.622v-9.087c0-1.132-.157-1.907-.472-2.326-.293-.42-.775-.63-1.446-.63-.587 0-1.09.137-1.509.41-.42.25-.881.618-1.384 1.1v10.533h-4.622Zm24.754.377c-1.447 0-2.757-.315-3.93-.943-1.153-.65-2.076-1.583-2.767-2.799-.671-1.236-1.006-2.714-1.006-4.433 0-1.74.377-3.217 1.131-4.433.755-1.216 1.751-2.138 2.987-2.767a8.459 8.459 0 0 1 3.993-.974c.965 0 1.814.157 2.547.471a7.977 7.977 0 0 1 2.012 1.195l-2.169 2.987c-.734-.608-1.436-.912-2.107-.912-1.111 0-2.001.398-2.672 1.195-.65.796-.975 1.876-.975 3.238 0 1.342.325 2.421.975 3.239.671.796 1.509 1.194 2.515 1.194.503 0 .996-.104 1.478-.314a6.971 6.971 0 0 0 1.32-.818l1.824 3.019c-.776.671-1.614 1.153-2.515 1.446a9.09 9.09 0 0 1-2.641.409Zm11.508 0c-1.425 0-2.557-.451-3.396-1.352-.838-.922-1.257-2.044-1.257-3.364 0-1.635.692-2.914 2.075-3.836 1.383-.922 3.616-1.54 6.697-1.855-.042-.692-.252-1.237-.629-1.635-.356-.42-.964-.629-1.824-.629-.649 0-1.31.126-1.98.377-.671.252-1.384.598-2.138 1.038l-1.667-3.05c.985-.608 2.034-1.1 3.144-1.478a11.065 11.065 0 0 1 3.522-.566c1.991 0 3.521.577 4.59 1.73s1.604 2.924 1.604 5.313v8.93h-3.773l-.315-1.604h-.125a9.403 9.403 0 0 1-2.107 1.446 5.46 5.46 0 0 1-2.421.535Zm1.572-3.584c.524 0 .975-.116 1.352-.346a7.016 7.016 0 0 0 1.195-.975v-2.735c-1.635.21-2.767.545-3.396 1.006-.629.44-.943.964-.943 1.572 0 .503.157.88.472 1.132.335.23.775.346 1.32.346Zm16.531 3.584c-1.929 0-3.312-.556-4.15-1.667-.818-1.11-1.227-2.567-1.227-4.37v-6.32h-2.138v-3.427l2.39-.188.534-4.15h3.836v4.15h3.742V94.1h-3.742v6.257c0 .881.178 1.52.535 1.918.377.377.87.566 1.477.566.252 0 .504-.031.755-.094a4.91 4.91 0 0 0 .723-.22l.723 3.364c-.398.126-.891.251-1.477.377-.566.126-1.227.189-1.981.189Zm10.314 0c-1.027 0-2.086-.199-3.176-.598-1.069-.398-2.001-.922-2.798-1.572l2.075-2.892c.713.524 1.394.933 2.044 1.226a5.229 5.229 0 0 0 1.981.409c.691 0 1.194-.116 1.509-.346.314-.252.472-.576.472-.975 0-.356-.158-.65-.472-.88-.294-.231-.681-.44-1.163-.629-.483-.21-.996-.42-1.541-.629a13.21 13.21 0 0 1-1.887-.943 5.338 5.338 0 0 1-1.54-1.446c-.419-.608-.629-1.342-.629-2.201 0-1.446.545-2.62 1.635-3.522 1.111-.9 2.557-1.351 4.339-1.351 1.195 0 2.243.21 3.144.628.922.399 1.708.85 2.358 1.352l-2.075 2.767a7.475 7.475 0 0 0-1.635-.975 4.169 4.169 0 0 0-1.635-.345c-1.195 0-1.792.408-1.792 1.226 0 .503.293.89.88 1.163.608.252 1.31.524 2.107.818.671.23 1.32.534 1.949.911.65.357 1.184.839 1.604 1.447.44.587.66 1.362.66 2.326 0 1.405-.545 2.599-1.635 3.585-1.09.964-2.683 1.446-4.779 1.446Zm12.022 0c-.797 0-1.468-.273-2.012-.818-.524-.566-.787-1.257-.787-2.075 0-.838.263-1.53.787-2.075.544-.566 1.215-.849 2.012-.849.796 0 1.457.283 1.981.849.545.545.817 1.237.817 2.075 0 .818-.272 1.509-.817 2.075-.524.545-1.185.818-1.981.818Zm9.426 0c-.797 0-1.467-.273-2.012-.818-.524-.566-.786-1.257-.786-2.075 0-.838.262-1.53.786-2.075.545-.566 1.215-.849 2.012-.849.796 0 1.457.283 1.981.849.545.545.817 1.237.817 2.075 0 .818-.272 1.509-.817 2.075-.524.545-1.185.818-1.981.818Zm9.426 0c-.796 0-1.467-.273-2.012-.818-.524-.566-.786-1.257-.786-2.075 0-.838.262-1.53.786-2.075.545-.566 1.216-.849 2.012-.849.797 0 1.457.283 1.981.849.545.545.817 1.237.817 2.075 0 .818-.272 1.509-.817 2.075-.524.545-1.184.818-1.981.818Z"/></g><g filter="url(#c)"><path fill="#fff" fill-rule="evenodd" d="M74.278 124.386c.685 0 1.242-.556 1.242-1.242v-3.902a1.242 1.242 0 1 0-2.484 0v3.902c0 .686.556 1.242 1.242 1.242Zm-8.584-2.691a1.242 1.242 0 0 1 1.756 0l2.76 2.759a1.242 1.242 0 1 1-1.757 1.756l-2.759-2.759a1.242 1.242 0 0 1 0-1.756Zm25.68 20.32 7.39 7.39a1.242 1.242 0 0 1 0 1.756l-3.606 3.606a1.24 1.24 0 0 1-1.756 0l-7.389-7.39-3.045 5.272a1.24 1.24 0 0 1-2.229-.161l-9.375-23.51a1.242 1.242 0 0 1 1.613-1.613l23.508 9.377a1.241 1.241 0 0 1 .16 2.228l-5.271 3.045Zm-22.989-11.736c0-.686-.556-1.242-1.241-1.242h-3.902a1.242 1.242 0 0 0 0 2.484h3.902a1.243 1.243 0 0 0 1.241-1.242Zm-3.262 6.591 2.759-2.759a1.241 1.241 0 1 1 1.756 1.756l-2.76 2.759a1.236 1.236 0 0 1-1.756 0 1.242 1.242 0 0 1 0-1.756Zm14.743-11.232c-.243.243-.56.364-.878.364a1.242 1.242 0 0 1-.878-2.12l2.759-2.759a1.242 1.242 0 1 1 1.756 1.756l-2.76 2.759Z" clip-rule="evenodd"/><path fill="#D9E7F7" d="m67.45 121.695.094-.094-.094.094Zm-1.756 0-.093-.094.093.094Zm4.515 2.759-.094.093.094-.093Zm0 1.756.094.093-.094-.093Zm-1.756 0-.093.093.093-.093Zm-2.759-2.759-.094.093.094-.093Zm33.07 25.954-.095.093.094-.093Zm-7.39-7.39-.066-.115-.15.087.122.122.094-.094Zm7.39 9.146.093.093-.094-.093Zm-3.606 3.606-.094-.094.094.094Zm-1.756 0 .093-.094-.093.094Zm-7.389-7.39.094-.094-.123-.122-.086.15.115.066Zm-3.045 5.272-.115-.066.115.066Zm-1.164.617.01-.132-.01.132Zm-1.064-.778-.124.049.124-.049Zm-9.376-23.51.123-.049v-.001l-.123.05Zm.275-1.338-.093-.094.093.094Zm1.338-.275-.049.123.05-.123Zm23.508 9.377-.05.123.05-.123Zm.778 1.064-.132.009.132-.009Zm-.617 1.164-.067-.115.067.115Zm-29.502-7.449v.132-.132Zm.738 2.59-.094-.094.094.094Zm-2.76 2.759-.093-.094.094.094Zm4.516-2.759.094-.094-.094.094Zm0 1.756.094.094-.094-.094Zm-2.76 2.759-.093-.094.094.094Zm-1.755 0-.094.094.094-.094Zm14.743-12.988.094.094-.094-.094Zm-1.756 0-.094.094.094-.094Zm0-1.756.094.094-.094-.094Zm2.759-2.759-.094-.094.094.094Zm1.756 0 .093-.094-.093.094Zm0 1.756-.094-.094.094.094Zm-7.238.265a1.11 1.11 0 0 1-1.11 1.109v.265c.76 0 1.375-.615 1.375-1.374h-.265Zm0-3.902v3.902h.265v-3.902h-.265Zm-1.11-1.109c.613 0 1.11.496 1.11 1.109h.265c0-.759-.615-1.375-1.374-1.375v.266Zm-1.108 1.109c0-.613.496-1.109 1.109-1.109v-.266c-.76 0-1.375.616-1.375 1.375h.266Zm0 3.902v-3.902h-.266v3.902h.266Zm1.109 1.109a1.11 1.11 0 0 1-1.11-1.109h-.265c0 .759.616 1.374 1.375 1.374v-.265Zm-6.734-2.652a1.374 1.374 0 0 0-1.943 0l.187.187a1.11 1.11 0 0 1 1.569 0l.187-.187Zm2.759 2.759-2.759-2.759-.187.187 2.758 2.759.188-.187Zm0 1.943a1.374 1.374 0 0 0 0-1.943l-.188.187a1.11 1.11 0 0 1 0 1.569l.188.187Zm-.972.403c.352 0 .704-.134.972-.403l-.188-.187c-.216.216-.5.325-.784.325v.265Zm-.971-.403c.268.269.62.403.971.403v-.265c-.284 0-.567-.109-.784-.325l-.187.187Zm-2.76-2.759 2.76 2.759.187-.187-2.759-2.759-.188.187Zm0-1.943a1.374 1.374 0 0 0 0 1.943l.188-.187a1.11 1.11 0 0 1 0-1.569l-.188-.187Zm33.257 27.71-7.39-7.39-.187.188 7.39 7.389.187-.187Zm0 1.943a1.374 1.374 0 0 0 0-1.943l-.188.187a1.11 1.11 0 0 1 0 1.569l.188.187Zm-3.606 3.606 3.606-3.606-.188-.187-3.605 3.606.187.187Zm-.971.403c.364 0 .714-.145.971-.403l-.187-.187c-.208.208-.49.325-.784.325v.265Zm-.972-.403c.257.258.607.403.972.403v-.265a1.11 1.11 0 0 1-.785-.325l-.187.187Zm-7.389-7.389 7.389 7.389.187-.187-7.388-7.39-.188.188Zm-2.836 5.244 3.045-5.271-.23-.133-3.045 5.272.23.132Zm-1.289.683a1.372 1.372 0 0 0 1.29-.683l-.23-.132a1.107 1.107 0 0 1-1.04.551l-.02.264Zm-1.178-.861c.195.489.653.824 1.178.861l.02-.264a1.11 1.11 0 0 1-.951-.695l-.247.098Zm-9.375-23.51 9.375 23.51.247-.098-9.376-23.51-.246.098Zm.305-1.481a1.374 1.374 0 0 0-.305 1.481l.246-.099a1.11 1.11 0 0 1 .246-1.195l-.187-.187Zm1.48-.305a1.376 1.376 0 0 0-1.48.305l.187.187c.314-.313.784-.41 1.195-.245l.099-.247Zm23.508 9.377-23.508-9.377-.098.247 23.508 9.377.098-.247Zm.861 1.178a1.375 1.375 0 0 0-.861-1.178l-.099.247c.395.157.665.526.696.95l.264-.019Zm-.683 1.289c.456-.263.721-.764.683-1.289l-.264.019c.03.424-.184.828-.552 1.04l.133.23Zm-5.272 3.045 5.272-3.045-.133-.23-5.271 3.045.132.23Zm-24.296-12.96c.612 0 1.109.496 1.109 1.109h.265c0-.759-.615-1.375-1.374-1.375v.266Zm-3.902 0h3.902v-.266h-3.902v.266Zm-1.11 1.109c0-.613.497-1.109 1.11-1.109v-.266c-.76 0-1.375.616-1.375 1.375h.266Zm1.11 1.109a1.11 1.11 0 0 1-1.11-1.109h-.265c0 .759.616 1.374 1.375 1.374v-.265Zm3.902 0h-3.902v.265h3.902v-.265Zm1.109-1.109a1.11 1.11 0 0 1-1.11 1.109v.265c.76 0 1.375-.615 1.375-1.374h-.265Zm-.465 3.738-2.76 2.759.188.188 2.76-2.759-.188-.188Zm1.944 0a1.375 1.375 0 0 0-1.944 0l.188.188a1.11 1.11 0 0 1 1.568 0l.188-.188Zm0 1.944a1.375 1.375 0 0 0 0-1.944l-.188.188a1.109 1.109 0 0 1 0 1.568l.188.188Zm-2.76 2.759 2.76-2.759-.188-.188-2.76 2.759.188.188Zm-.971.402c.351 0 .703-.134.971-.402l-.187-.188c-.217.217-.5.325-.784.325v.265Zm-.972-.402c.268.268.62.402.972.402v-.265c-.284 0-.568-.108-.785-.325l-.187.188Zm0-1.944a1.375 1.375 0 0 0 0 1.944l.187-.188a1.109 1.109 0 0 1 0-1.568l-.187-.188Zm13.959-10.642c.351 0 .703-.134.972-.402l-.188-.188c-.217.217-.5.325-.784.325v.265Zm-.972-.402c.268.268.62.402.972.402v-.265c-.284 0-.568-.108-.784-.325l-.188.188Zm0-1.944a1.375 1.375 0 0 0 0 1.944l.188-.188a1.108 1.108 0 0 1 0-1.568l-.188-.188Zm2.759-2.759-2.759 2.759.188.188 2.758-2.759-.187-.188Zm1.943 0a1.376 1.376 0 0 0-1.943 0l.187.188a1.11 1.11 0 0 1 1.569 0l.187-.188Zm0 1.944a1.375 1.375 0 0 0 0-1.944l-.187.188a1.109 1.109 0 0 1 0 1.568l.187.188Zm-2.758 2.759 2.758-2.759-.187-.188-2.759 2.759.188.188Z"/></g></g><defs><clipPath id="a"><rect width="360" height="244" fill="#fff" rx="6"/></clipPath><clipPath id="b"><path fill="#fff" d="M26 68h341.4v51H26z"/></clipPath><filter id="c" width="143.479" height="143.483" x="15.454" y="67.476" color-interpolation-filters="sRGB" filterUnits="userSpaceOnUse"><feFlood flood-opacity="0" result="BackgroundImageFix"/><feColorMatrix in="SourceAlpha" result="hardAlpha" values="0 0 0 0 0 0 0 0 0 0 0 0 0 0 0 0 0 0 127 0"/><feOffset dx="6.63" dy="2.652"/><feGaussianBlur stdDeviation="26.522"/><feColorMatrix values="0 0 0 0 0 0 0 0 0 0.460526 0 0 0 0 1 0 0 0 0.66 0"/><feBlend in2="BackgroundImageFix" result="effect1_dropShadow_820_1610"/><feColorMatrix in="SourceAlpha" result="hardAlpha" values="0 0 0 0 0 0 0 0 0 0 0 0 0 0 0 0 0 0 127 0"/><feOffset dx="6.63" dy="6.63"/><feGaussianBlur stdDeviation="6.63"/><feColorMatrix values="0 0 0 0 0.383333 0 0 0 0 0.360972 0 0 0 0 0.360972 0 0 0 0.08 0"/><feBlend in2="effect1_dropShadow_820_1610" result="effect2_dropShadow_820_1610"/><feBlend in="SourceGraphic" in2="effect2_dropShadow_820_1610" result="shape"/></filter></defs></svg>